<?xml version="1.0" encoding="utf-8" standalone="no"?>
<!DOCTYPE svg PUBLIC "-//W3C//DTD SVG 1.1//EN"
  "http://www.w3.org/Graphics/SVG/1.1/DTD/svg11.dtd">
<svg xmlns:xlink="http://www.w3.org/1999/xlink" width="648pt" height="374.4pt" viewBox="0 0 648 374.4" xmlns="http://www.w3.org/2000/svg" version="1.1">
 <metadata>
  <rdf:RDF xmlns:dc="http://purl.org/dc/elements/1.1/" xmlns:cc="http://creativecommons.org/ns#" xmlns:rdf="http://www.w3.org/1999/02/22-rdf-syntax-ns#">
   <cc:Work>
    <dc:type rdf:resource="http://purl.org/dc/dcmitype/StillImage"/>
    <dc:date>2026-05-04T17:52:18.053069</dc:date>
    <dc:format>image/svg+xml</dc:format>
    <dc:creator>
     <cc:Agent>
      <dc:title>Matplotlib v3.10.0, https://matplotlib.org/</dc:title>
     </cc:Agent>
    </dc:creator>
   </cc:Work>
  </rdf:RDF>
 </metadata>
 <defs>
  <style type="text/css">*{stroke-linejoin: round; stroke-linecap: butt}</style>
 </defs>
 <g id="figure_1">
  <g id="patch_1">
   <path d="M 0 374.4 
L 648 374.4 
L 648 0 
L 0 0 
z
" style="fill: #ffffff"/>
  </g>
  <g id="axes_1">
   <g id="patch_2">
    <path d="M 47.72 332.44 
L 637.2 332.44 
L 637.2 26.88 
L 47.72 26.88 
z
" style="fill: #ffffff"/>
   </g>
   <g id="matplotlib.axis_1">
    <g id="xtick_1">
     <g id="line2d_1">
      <path d="M 152.057771 332.44 
L 152.057771 26.88 
" clip-path="url(#p40913c9c91)" style="fill: none; stroke: #b0b0b0; stroke-opacity: 0.35; stroke-width: 0.8; stroke-linecap: square"/>
     </g>
     <g id="line2d_2">
      <defs>
       <path id="mc349f3ee06" d="M 0 0 
L 0 3.5 
" style="stroke: #000000; stroke-width: 0.8"/>
      </defs>
      <g>
       <use xlink:href="#mc349f3ee06" x="152.057771" y="332.44" style="stroke: #000000; stroke-width: 0.8"/>
      </g>
     </g>
     <g id="text_1">
      <!-- 0.05 -->
      <g transform="translate(140.924958 347.038437) scale(0.1 -0.1)">
       <defs>
        <path id="DejaVuSans-30" d="M 2034 4250 
Q 1547 4250 1301 3770 
Q 1056 3291 1056 2328 
Q 1056 1369 1301 889 
Q 1547 409 2034 409 
Q 2525 409 2770 889 
Q 3016 1369 3016 2328 
Q 3016 3291 2770 3770 
Q 2525 4250 2034 4250 
z
M 2034 4750 
Q 2819 4750 3233 4129 
Q 3647 3509 3647 2328 
Q 3647 1150 3233 529 
Q 2819 -91 2034 -91 
Q 1250 -91 836 529 
Q 422 1150 422 2328 
Q 422 3509 836 4129 
Q 1250 4750 2034 4750 
z
" transform="scale(0.015625)"/>
        <path id="DejaVuSans-2e" d="M 684 794 
L 1344 794 
L 1344 0 
L 684 0 
L 684 794 
z
" transform="scale(0.015625)"/>
        <path id="DejaVuSans-35" d="M 691 4666 
L 3169 4666 
L 3169 4134 
L 1269 4134 
L 1269 2991 
Q 1406 3038 1543 3061 
Q 1681 3084 1819 3084 
Q 2600 3084 3056 2656 
Q 3513 2228 3513 1497 
Q 3513 744 3044 326 
Q 2575 -91 1722 -91 
Q 1428 -91 1123 -41 
Q 819 9 494 109 
L 494 744 
Q 775 591 1075 516 
Q 1375 441 1709 441 
Q 2250 441 2565 725 
Q 2881 1009 2881 1497 
Q 2881 1984 2565 2268 
Q 2250 2553 1709 2553 
Q 1456 2553 1204 2497 
Q 953 2441 691 2322 
L 691 4666 
z
" transform="scale(0.015625)"/>
       </defs>
       <use xlink:href="#DejaVuSans-30"/>
       <use xlink:href="#DejaVuSans-2e" transform="translate(63.623047 0)"/>
       <use xlink:href="#DejaVuSans-30" transform="translate(95.410156 0)"/>
       <use xlink:href="#DejaVuSans-35" transform="translate(159.033203 0)"/>
      </g>
     </g>
    </g>
    <g id="xtick_2">
     <g id="line2d_3">
      <path d="M 258.005108 332.44 
L 258.005108 26.88 
" clip-path="url(#p40913c9c91)" style="fill: none; stroke: #b0b0b0; stroke-opacity: 0.35; stroke-width: 0.8; stroke-linecap: square"/>
     </g>
     <g id="line2d_4">
      <g>
       <use xlink:href="#mc349f3ee06" x="258.005108" y="332.44" style="stroke: #000000; stroke-width: 0.8"/>
      </g>
     </g>
     <g id="text_2">
      <!-- 0.10 -->
      <g transform="translate(246.872295 347.038437) scale(0.1 -0.1)">
       <defs>
        <path id="DejaVuSans-31" d="M 794 531 
L 1825 531 
L 1825 4091 
L 703 3866 
L 703 4441 
L 1819 4666 
L 2450 4666 
L 2450 531 
L 3481 531 
L 3481 0 
L 794 0 
L 794 531 
z
" transform="scale(0.015625)"/>
       </defs>
       <use xlink:href="#DejaVuSans-30"/>
       <use xlink:href="#DejaVuSans-2e" transform="translate(63.623047 0)"/>
       <use xlink:href="#DejaVuSans-31" transform="translate(95.410156 0)"/>
       <use xlink:href="#DejaVuSans-30" transform="translate(159.033203 0)"/>
      </g>
     </g>
    </g>
    <g id="xtick_3">
     <g id="line2d_5">
      <path d="M 363.952445 332.44 
L 363.952445 26.88 
" clip-path="url(#p40913c9c91)" style="fill: none; stroke: #b0b0b0; stroke-opacity: 0.35; stroke-width: 0.8; stroke-linecap: square"/>
     </g>
     <g id="line2d_6">
      <g>
       <use xlink:href="#mc349f3ee06" x="363.952445" y="332.44" style="stroke: #000000; stroke-width: 0.8"/>
      </g>
     </g>
     <g id="text_3">
      <!-- 0.15 -->
      <g transform="translate(352.819632 347.038437) scale(0.1 -0.1)">
       <use xlink:href="#DejaVuSans-30"/>
       <use xlink:href="#DejaVuSans-2e" transform="translate(63.623047 0)"/>
       <use xlink:href="#DejaVuSans-31" transform="translate(95.410156 0)"/>
       <use xlink:href="#DejaVuSans-35" transform="translate(159.033203 0)"/>
      </g>
     </g>
    </g>
    <g id="xtick_4">
     <g id="line2d_7">
      <path d="M 469.899782 332.44 
L 469.899782 26.88 
" clip-path="url(#p40913c9c91)" style="fill: none; stroke: #b0b0b0; stroke-opacity: 0.35; stroke-width: 0.8; stroke-linecap: square"/>
     </g>
     <g id="line2d_8">
      <g>
       <use xlink:href="#mc349f3ee06" x="469.899782" y="332.44" style="stroke: #000000; stroke-width: 0.8"/>
      </g>
     </g>
     <g id="text_4">
      <!-- 0.20 -->
      <g transform="translate(458.766969 347.038437) scale(0.1 -0.1)">
       <defs>
        <path id="DejaVuSans-32" d="M 1228 531 
L 3431 531 
L 3431 0 
L 469 0 
L 469 531 
Q 828 903 1448 1529 
Q 2069 2156 2228 2338 
Q 2531 2678 2651 2914 
Q 2772 3150 2772 3378 
Q 2772 3750 2511 3984 
Q 2250 4219 1831 4219 
Q 1534 4219 1204 4116 
Q 875 4013 500 3803 
L 500 4441 
Q 881 4594 1212 4672 
Q 1544 4750 1819 4750 
Q 2544 4750 2975 4387 
Q 3406 4025 3406 3419 
Q 3406 3131 3298 2873 
Q 3191 2616 2906 2266 
Q 2828 2175 2409 1742 
Q 1991 1309 1228 531 
z
" transform="scale(0.015625)"/>
       </defs>
       <use xlink:href="#DejaVuSans-30"/>
       <use xlink:href="#DejaVuSans-2e" transform="translate(63.623047 0)"/>
       <use xlink:href="#DejaVuSans-32" transform="translate(95.410156 0)"/>
       <use xlink:href="#DejaVuSans-30" transform="translate(159.033203 0)"/>
      </g>
     </g>
    </g>
    <g id="xtick_5">
     <g id="line2d_9">
      <path d="M 575.847119 332.44 
L 575.847119 26.88 
" clip-path="url(#p40913c9c91)" style="fill: none; stroke: #b0b0b0; stroke-opacity: 0.35; stroke-width: 0.8; stroke-linecap: square"/>
     </g>
     <g id="line2d_10">
      <g>
       <use xlink:href="#mc349f3ee06" x="575.847119" y="332.44" style="stroke: #000000; stroke-width: 0.8"/>
      </g>
     </g>
     <g id="text_5">
      <!-- 0.25 -->
      <g transform="translate(564.714306 347.038437) scale(0.1 -0.1)">
       <use xlink:href="#DejaVuSans-30"/>
       <use xlink:href="#DejaVuSans-2e" transform="translate(63.623047 0)"/>
       <use xlink:href="#DejaVuSans-32" transform="translate(95.410156 0)"/>
       <use xlink:href="#DejaVuSans-35" transform="translate(159.033203 0)"/>
      </g>
     </g>
    </g>
    <g id="text_6">
     <!-- Fraction of all test queries evaluated -->
     <g transform="translate(250.813906 360.716563) scale(0.1 -0.1)">
      <defs>
       <path id="DejaVuSans-46" d="M 628 4666 
L 3309 4666 
L 3309 4134 
L 1259 4134 
L 1259 2759 
L 3109 2759 
L 3109 2228 
L 1259 2228 
L 1259 0 
L 628 0 
L 628 4666 
z
" transform="scale(0.015625)"/>
       <path id="DejaVuSans-72" d="M 2631 2963 
Q 2534 3019 2420 3045 
Q 2306 3072 2169 3072 
Q 1681 3072 1420 2755 
Q 1159 2438 1159 1844 
L 1159 0 
L 581 0 
L 581 3500 
L 1159 3500 
L 1159 2956 
Q 1341 3275 1631 3429 
Q 1922 3584 2338 3584 
Q 2397 3584 2469 3576 
Q 2541 3569 2628 3553 
L 2631 2963 
z
" transform="scale(0.015625)"/>
       <path id="DejaVuSans-61" d="M 2194 1759 
Q 1497 1759 1228 1600 
Q 959 1441 959 1056 
Q 959 750 1161 570 
Q 1363 391 1709 391 
Q 2188 391 2477 730 
Q 2766 1069 2766 1631 
L 2766 1759 
L 2194 1759 
z
M 3341 1997 
L 3341 0 
L 2766 0 
L 2766 531 
Q 2569 213 2275 61 
Q 1981 -91 1556 -91 
Q 1019 -91 701 211 
Q 384 513 384 1019 
Q 384 1609 779 1909 
Q 1175 2209 1959 2209 
L 2766 2209 
L 2766 2266 
Q 2766 2663 2505 2880 
Q 2244 3097 1772 3097 
Q 1472 3097 1187 3025 
Q 903 2953 641 2809 
L 641 3341 
Q 956 3463 1253 3523 
Q 1550 3584 1831 3584 
Q 2591 3584 2966 3190 
Q 3341 2797 3341 1997 
z
" transform="scale(0.015625)"/>
       <path id="DejaVuSans-63" d="M 3122 3366 
L 3122 2828 
Q 2878 2963 2633 3030 
Q 2388 3097 2138 3097 
Q 1578 3097 1268 2742 
Q 959 2388 959 1747 
Q 959 1106 1268 751 
Q 1578 397 2138 397 
Q 2388 397 2633 464 
Q 2878 531 3122 666 
L 3122 134 
Q 2881 22 2623 -34 
Q 2366 -91 2075 -91 
Q 1284 -91 818 406 
Q 353 903 353 1747 
Q 353 2603 823 3093 
Q 1294 3584 2113 3584 
Q 2378 3584 2631 3529 
Q 2884 3475 3122 3366 
z
" transform="scale(0.015625)"/>
       <path id="DejaVuSans-74" d="M 1172 4494 
L 1172 3500 
L 2356 3500 
L 2356 3053 
L 1172 3053 
L 1172 1153 
Q 1172 725 1289 603 
Q 1406 481 1766 481 
L 2356 481 
L 2356 0 
L 1766 0 
Q 1100 0 847 248 
Q 594 497 594 1153 
L 594 3053 
L 172 3053 
L 172 3500 
L 594 3500 
L 594 4494 
L 1172 4494 
z
" transform="scale(0.015625)"/>
       <path id="DejaVuSans-69" d="M 603 3500 
L 1178 3500 
L 1178 0 
L 603 0 
L 603 3500 
z
M 603 4863 
L 1178 4863 
L 1178 4134 
L 603 4134 
L 603 4863 
z
" transform="scale(0.015625)"/>
       <path id="DejaVuSans-6f" d="M 1959 3097 
Q 1497 3097 1228 2736 
Q 959 2375 959 1747 
Q 959 1119 1226 758 
Q 1494 397 1959 397 
Q 2419 397 2687 759 
Q 2956 1122 2956 1747 
Q 2956 2369 2687 2733 
Q 2419 3097 1959 3097 
z
M 1959 3584 
Q 2709 3584 3137 3096 
Q 3566 2609 3566 1747 
Q 3566 888 3137 398 
Q 2709 -91 1959 -91 
Q 1206 -91 779 398 
Q 353 888 353 1747 
Q 353 2609 779 3096 
Q 1206 3584 1959 3584 
z
" transform="scale(0.015625)"/>
       <path id="DejaVuSans-6e" d="M 3513 2113 
L 3513 0 
L 2938 0 
L 2938 2094 
Q 2938 2591 2744 2837 
Q 2550 3084 2163 3084 
Q 1697 3084 1428 2787 
Q 1159 2491 1159 1978 
L 1159 0 
L 581 0 
L 581 3500 
L 1159 3500 
L 1159 2956 
Q 1366 3272 1645 3428 
Q 1925 3584 2291 3584 
Q 2894 3584 3203 3211 
Q 3513 2838 3513 2113 
z
" transform="scale(0.015625)"/>
       <path id="DejaVuSans-20" transform="scale(0.015625)"/>
       <path id="DejaVuSans-66" d="M 2375 4863 
L 2375 4384 
L 1825 4384 
Q 1516 4384 1395 4259 
Q 1275 4134 1275 3809 
L 1275 3500 
L 2222 3500 
L 2222 3053 
L 1275 3053 
L 1275 0 
L 697 0 
L 697 3053 
L 147 3053 
L 147 3500 
L 697 3500 
L 697 3744 
Q 697 4328 969 4595 
Q 1241 4863 1831 4863 
L 2375 4863 
z
" transform="scale(0.015625)"/>
       <path id="DejaVuSans-6c" d="M 603 4863 
L 1178 4863 
L 1178 0 
L 603 0 
L 603 4863 
z
" transform="scale(0.015625)"/>
       <path id="DejaVuSans-65" d="M 3597 1894 
L 3597 1613 
L 953 1613 
Q 991 1019 1311 708 
Q 1631 397 2203 397 
Q 2534 397 2845 478 
Q 3156 559 3463 722 
L 3463 178 
Q 3153 47 2828 -22 
Q 2503 -91 2169 -91 
Q 1331 -91 842 396 
Q 353 884 353 1716 
Q 353 2575 817 3079 
Q 1281 3584 2069 3584 
Q 2775 3584 3186 3129 
Q 3597 2675 3597 1894 
z
M 3022 2063 
Q 3016 2534 2758 2815 
Q 2500 3097 2075 3097 
Q 1594 3097 1305 2825 
Q 1016 2553 972 2059 
L 3022 2063 
z
" transform="scale(0.015625)"/>
       <path id="DejaVuSans-73" d="M 2834 3397 
L 2834 2853 
Q 2591 2978 2328 3040 
Q 2066 3103 1784 3103 
Q 1356 3103 1142 2972 
Q 928 2841 928 2578 
Q 928 2378 1081 2264 
Q 1234 2150 1697 2047 
L 1894 2003 
Q 2506 1872 2764 1633 
Q 3022 1394 3022 966 
Q 3022 478 2636 193 
Q 2250 -91 1575 -91 
Q 1294 -91 989 -36 
Q 684 19 347 128 
L 347 722 
Q 666 556 975 473 
Q 1284 391 1588 391 
Q 1994 391 2212 530 
Q 2431 669 2431 922 
Q 2431 1156 2273 1281 
Q 2116 1406 1581 1522 
L 1381 1569 
Q 847 1681 609 1914 
Q 372 2147 372 2553 
Q 372 3047 722 3315 
Q 1072 3584 1716 3584 
Q 2034 3584 2315 3537 
Q 2597 3491 2834 3397 
z
" transform="scale(0.015625)"/>
       <path id="DejaVuSans-71" d="M 947 1747 
Q 947 1113 1208 752 
Q 1469 391 1925 391 
Q 2381 391 2643 752 
Q 2906 1113 2906 1747 
Q 2906 2381 2643 2742 
Q 2381 3103 1925 3103 
Q 1469 3103 1208 2742 
Q 947 2381 947 1747 
z
M 2906 525 
Q 2725 213 2448 61 
Q 2172 -91 1784 -91 
Q 1150 -91 751 415 
Q 353 922 353 1747 
Q 353 2572 751 3078 
Q 1150 3584 1784 3584 
Q 2172 3584 2448 3432 
Q 2725 3281 2906 2969 
L 2906 3500 
L 3481 3500 
L 3481 -1331 
L 2906 -1331 
L 2906 525 
z
" transform="scale(0.015625)"/>
       <path id="DejaVuSans-75" d="M 544 1381 
L 544 3500 
L 1119 3500 
L 1119 1403 
Q 1119 906 1312 657 
Q 1506 409 1894 409 
Q 2359 409 2629 706 
Q 2900 1003 2900 1516 
L 2900 3500 
L 3475 3500 
L 3475 0 
L 2900 0 
L 2900 538 
Q 2691 219 2414 64 
Q 2138 -91 1772 -91 
Q 1169 -91 856 284 
Q 544 659 544 1381 
z
M 1991 3584 
L 1991 3584 
z
" transform="scale(0.015625)"/>
       <path id="DejaVuSans-76" d="M 191 3500 
L 800 3500 
L 1894 563 
L 2988 3500 
L 3597 3500 
L 2284 0 
L 1503 0 
L 191 3500 
z
" transform="scale(0.015625)"/>
       <path id="DejaVuSans-64" d="M 2906 2969 
L 2906 4863 
L 3481 4863 
L 3481 0 
L 2906 0 
L 2906 525 
Q 2725 213 2448 61 
Q 2172 -91 1784 -91 
Q 1150 -91 751 415 
Q 353 922 353 1747 
Q 353 2572 751 3078 
Q 1150 3584 1784 3584 
Q 2172 3584 2448 3432 
Q 2725 3281 2906 2969 
z
M 947 1747 
Q 947 1113 1208 752 
Q 1469 391 1925 391 
Q 2381 391 2643 752 
Q 2906 1113 2906 1747 
Q 2906 2381 2643 2742 
Q 2381 3103 1925 3103 
Q 1469 3103 1208 2742 
Q 947 2381 947 1747 
z
" transform="scale(0.015625)"/>
      </defs>
      <use xlink:href="#DejaVuSans-46"/>
      <use xlink:href="#DejaVuSans-72" transform="translate(50.269531 0)"/>
      <use xlink:href="#DejaVuSans-61" transform="translate(91.382812 0)"/>
      <use xlink:href="#DejaVuSans-63" transform="translate(152.662109 0)"/>
      <use xlink:href="#DejaVuSans-74" transform="translate(207.642578 0)"/>
      <use xlink:href="#DejaVuSans-69" transform="translate(246.851562 0)"/>
      <use xlink:href="#DejaVuSans-6f" transform="translate(274.634766 0)"/>
      <use xlink:href="#DejaVuSans-6e" transform="translate(335.816406 0)"/>
      <use xlink:href="#DejaVuSans-20" transform="translate(399.195312 0)"/>
      <use xlink:href="#DejaVuSans-6f" transform="translate(430.982422 0)"/>
      <use xlink:href="#DejaVuSans-66" transform="translate(492.164062 0)"/>
      <use xlink:href="#DejaVuSans-20" transform="translate(527.369141 0)"/>
      <use xlink:href="#DejaVuSans-61" transform="translate(559.15625 0)"/>
      <use xlink:href="#DejaVuSans-6c" transform="translate(620.435547 0)"/>
      <use xlink:href="#DejaVuSans-6c" transform="translate(648.21875 0)"/>
      <use xlink:href="#DejaVuSans-20" transform="translate(676.001953 0)"/>
      <use xlink:href="#DejaVuSans-74" transform="translate(707.789062 0)"/>
      <use xlink:href="#DejaVuSans-65" transform="translate(746.998047 0)"/>
      <use xlink:href="#DejaVuSans-73" transform="translate(808.521484 0)"/>
      <use xlink:href="#DejaVuSans-74" transform="translate(860.621094 0)"/>
      <use xlink:href="#DejaVuSans-20" transform="translate(899.830078 0)"/>
      <use xlink:href="#DejaVuSans-71" transform="translate(931.617188 0)"/>
      <use xlink:href="#DejaVuSans-75" transform="translate(995.09375 0)"/>
      <use xlink:href="#DejaVuSans-65" transform="translate(1058.472656 0)"/>
      <use xlink:href="#DejaVuSans-72" transform="translate(1119.996094 0)"/>
      <use xlink:href="#DejaVuSans-69" transform="translate(1161.109375 0)"/>
      <use xlink:href="#DejaVuSans-65" transform="translate(1188.892578 0)"/>
      <use xlink:href="#DejaVuSans-73" transform="translate(1250.416016 0)"/>
      <use xlink:href="#DejaVuSans-20" transform="translate(1302.515625 0)"/>
      <use xlink:href="#DejaVuSans-65" transform="translate(1334.302734 0)"/>
      <use xlink:href="#DejaVuSans-76" transform="translate(1395.826172 0)"/>
      <use xlink:href="#DejaVuSans-61" transform="translate(1455.005859 0)"/>
      <use xlink:href="#DejaVuSans-6c" transform="translate(1516.285156 0)"/>
      <use xlink:href="#DejaVuSans-75" transform="translate(1544.068359 0)"/>
      <use xlink:href="#DejaVuSans-61" transform="translate(1607.447266 0)"/>
      <use xlink:href="#DejaVuSans-74" transform="translate(1668.726562 0)"/>
      <use xlink:href="#DejaVuSans-65" transform="translate(1707.935547 0)"/>
      <use xlink:href="#DejaVuSans-64" transform="translate(1769.458984 0)"/>
     </g>
    </g>
   </g>
   <g id="matplotlib.axis_2">
    <g id="ytick_1">
     <g id="line2d_11">
      <path d="M 47.72 299.00859 
L 637.2 299.00859 
" clip-path="url(#p40913c9c91)" style="fill: none; stroke: #b0b0b0; stroke-opacity: 0.35; stroke-width: 0.8; stroke-linecap: square"/>
     </g>
     <g id="line2d_12">
      <defs>
       <path id="m5f04304bb1" d="M 0 0 
L -3.5 0 
" style="stroke: #000000; stroke-width: 0.8"/>
      </defs>
      <g>
       <use xlink:href="#m5f04304bb1" x="47.72" y="299.00859" style="stroke: #000000; stroke-width: 0.8"/>
      </g>
     </g>
     <g id="text_7">
      <!-- 0.5 -->
      <g transform="translate(24.816875 302.807809) scale(0.1 -0.1)">
       <use xlink:href="#DejaVuSans-30"/>
       <use xlink:href="#DejaVuSans-2e" transform="translate(63.623047 0)"/>
       <use xlink:href="#DejaVuSans-35" transform="translate(95.410156 0)"/>
      </g>
     </g>
    </g>
    <g id="ytick_2">
     <g id="line2d_13">
      <path d="M 47.72 246.6805 
L 637.2 246.6805 
" clip-path="url(#p40913c9c91)" style="fill: none; stroke: #b0b0b0; stroke-opacity: 0.35; stroke-width: 0.8; stroke-linecap: square"/>
     </g>
     <g id="line2d_14">
      <g>
       <use xlink:href="#m5f04304bb1" x="47.72" y="246.6805" style="stroke: #000000; stroke-width: 0.8"/>
      </g>
     </g>
     <g id="text_8">
      <!-- 1.0 -->
      <g transform="translate(24.816875 250.479719) scale(0.1 -0.1)">
       <use xlink:href="#DejaVuSans-31"/>
       <use xlink:href="#DejaVuSans-2e" transform="translate(63.623047 0)"/>
       <use xlink:href="#DejaVuSans-30" transform="translate(95.410156 0)"/>
      </g>
     </g>
    </g>
    <g id="ytick_3">
     <g id="line2d_15">
      <path d="M 47.72 194.35241 
L 637.2 194.35241 
" clip-path="url(#p40913c9c91)" style="fill: none; stroke: #b0b0b0; stroke-opacity: 0.35; stroke-width: 0.8; stroke-linecap: square"/>
     </g>
     <g id="line2d_16">
      <g>
       <use xlink:href="#m5f04304bb1" x="47.72" y="194.35241" style="stroke: #000000; stroke-width: 0.8"/>
      </g>
     </g>
     <g id="text_9">
      <!-- 1.5 -->
      <g transform="translate(24.816875 198.151629) scale(0.1 -0.1)">
       <use xlink:href="#DejaVuSans-31"/>
       <use xlink:href="#DejaVuSans-2e" transform="translate(63.623047 0)"/>
       <use xlink:href="#DejaVuSans-35" transform="translate(95.410156 0)"/>
      </g>
     </g>
    </g>
    <g id="ytick_4">
     <g id="line2d_17">
      <path d="M 47.72 142.024321 
L 637.2 142.024321 
" clip-path="url(#p40913c9c91)" style="fill: none; stroke: #b0b0b0; stroke-opacity: 0.35; stroke-width: 0.8; stroke-linecap: square"/>
     </g>
     <g id="line2d_18">
      <g>
       <use xlink:href="#m5f04304bb1" x="47.72" y="142.024321" style="stroke: #000000; stroke-width: 0.8"/>
      </g>
     </g>
     <g id="text_10">
      <!-- 2.0 -->
      <g transform="translate(24.816875 145.823539) scale(0.1 -0.1)">
       <use xlink:href="#DejaVuSans-32"/>
       <use xlink:href="#DejaVuSans-2e" transform="translate(63.623047 0)"/>
       <use xlink:href="#DejaVuSans-30" transform="translate(95.410156 0)"/>
      </g>
     </g>
    </g>
    <g id="ytick_5">
     <g id="line2d_19">
      <path d="M 47.72 89.696231 
L 637.2 89.696231 
" clip-path="url(#p40913c9c91)" style="fill: none; stroke: #b0b0b0; stroke-opacity: 0.35; stroke-width: 0.8; stroke-linecap: square"/>
     </g>
     <g id="line2d_20">
      <g>
       <use xlink:href="#m5f04304bb1" x="47.72" y="89.696231" style="stroke: #000000; stroke-width: 0.8"/>
      </g>
     </g>
     <g id="text_11">
      <!-- 2.5 -->
      <g transform="translate(24.816875 93.495449) scale(0.1 -0.1)">
       <use xlink:href="#DejaVuSans-32"/>
       <use xlink:href="#DejaVuSans-2e" transform="translate(63.623047 0)"/>
       <use xlink:href="#DejaVuSans-35" transform="translate(95.410156 0)"/>
      </g>
     </g>
    </g>
    <g id="ytick_6">
     <g id="line2d_21">
      <path d="M 47.72 37.368141 
L 637.2 37.368141 
" clip-path="url(#p40913c9c91)" style="fill: none; stroke: #b0b0b0; stroke-opacity: 0.35; stroke-width: 0.8; stroke-linecap: square"/>
     </g>
     <g id="line2d_22">
      <g>
       <use xlink:href="#m5f04304bb1" x="47.72" y="37.368141" style="stroke: #000000; stroke-width: 0.8"/>
      </g>
     </g>
     <g id="text_12">
      <!-- 3.0 -->
      <g transform="translate(24.816875 41.16736) scale(0.1 -0.1)">
       <defs>
        <path id="DejaVuSans-33" d="M 2597 2516 
Q 3050 2419 3304 2112 
Q 3559 1806 3559 1356 
Q 3559 666 3084 287 
Q 2609 -91 1734 -91 
Q 1441 -91 1130 -33 
Q 819 25 488 141 
L 488 750 
Q 750 597 1062 519 
Q 1375 441 1716 441 
Q 2309 441 2620 675 
Q 2931 909 2931 1356 
Q 2931 1769 2642 2001 
Q 2353 2234 1838 2234 
L 1294 2234 
L 1294 2753 
L 1863 2753 
Q 2328 2753 2575 2939 
Q 2822 3125 2822 3475 
Q 2822 3834 2567 4026 
Q 2313 4219 1838 4219 
Q 1578 4219 1281 4162 
Q 984 4106 628 3988 
L 628 4550 
Q 988 4650 1302 4700 
Q 1616 4750 1894 4750 
Q 2613 4750 3031 4423 
Q 3450 4097 3450 3541 
Q 3450 3153 3228 2886 
Q 3006 2619 2597 2516 
z
" transform="scale(0.015625)"/>
       </defs>
       <use xlink:href="#DejaVuSans-33"/>
       <use xlink:href="#DejaVuSans-2e" transform="translate(63.623047 0)"/>
       <use xlink:href="#DejaVuSans-30" transform="translate(95.410156 0)"/>
      </g>
     </g>
    </g>
    <g id="text_13">
     <!-- Mean margin confidence -->
     <g transform="translate(18.737188 241.467813) rotate(-90) scale(0.1 -0.1)">
      <defs>
       <path id="DejaVuSans-4d" d="M 628 4666 
L 1569 4666 
L 2759 1491 
L 3956 4666 
L 4897 4666 
L 4897 0 
L 4281 0 
L 4281 4097 
L 3078 897 
L 2444 897 
L 1241 4097 
L 1241 0 
L 628 0 
L 628 4666 
z
" transform="scale(0.015625)"/>
       <path id="DejaVuSans-6d" d="M 3328 2828 
Q 3544 3216 3844 3400 
Q 4144 3584 4550 3584 
Q 5097 3584 5394 3201 
Q 5691 2819 5691 2113 
L 5691 0 
L 5113 0 
L 5113 2094 
Q 5113 2597 4934 2840 
Q 4756 3084 4391 3084 
Q 3944 3084 3684 2787 
Q 3425 2491 3425 1978 
L 3425 0 
L 2847 0 
L 2847 2094 
Q 2847 2600 2669 2842 
Q 2491 3084 2119 3084 
Q 1678 3084 1418 2786 
Q 1159 2488 1159 1978 
L 1159 0 
L 581 0 
L 581 3500 
L 1159 3500 
L 1159 2956 
Q 1356 3278 1631 3431 
Q 1906 3584 2284 3584 
Q 2666 3584 2933 3390 
Q 3200 3197 3328 2828 
z
" transform="scale(0.015625)"/>
       <path id="DejaVuSans-67" d="M 2906 1791 
Q 2906 2416 2648 2759 
Q 2391 3103 1925 3103 
Q 1463 3103 1205 2759 
Q 947 2416 947 1791 
Q 947 1169 1205 825 
Q 1463 481 1925 481 
Q 2391 481 2648 825 
Q 2906 1169 2906 1791 
z
M 3481 434 
Q 3481 -459 3084 -895 
Q 2688 -1331 1869 -1331 
Q 1566 -1331 1297 -1286 
Q 1028 -1241 775 -1147 
L 775 -588 
Q 1028 -725 1275 -790 
Q 1522 -856 1778 -856 
Q 2344 -856 2625 -561 
Q 2906 -266 2906 331 
L 2906 616 
Q 2728 306 2450 153 
Q 2172 0 1784 0 
Q 1141 0 747 490 
Q 353 981 353 1791 
Q 353 2603 747 3093 
Q 1141 3584 1784 3584 
Q 2172 3584 2450 3431 
Q 2728 3278 2906 2969 
L 2906 3500 
L 3481 3500 
L 3481 434 
z
" transform="scale(0.015625)"/>
      </defs>
      <use xlink:href="#DejaVuSans-4d"/>
      <use xlink:href="#DejaVuSans-65" transform="translate(86.279297 0)"/>
      <use xlink:href="#DejaVuSans-61" transform="translate(147.802734 0)"/>
      <use xlink:href="#DejaVuSans-6e" transform="translate(209.082031 0)"/>
      <use xlink:href="#DejaVuSans-20" transform="translate(272.460938 0)"/>
      <use xlink:href="#DejaVuSans-6d" transform="translate(304.248047 0)"/>
      <use xlink:href="#DejaVuSans-61" transform="translate(401.660156 0)"/>
      <use xlink:href="#DejaVuSans-72" transform="translate(462.939453 0)"/>
      <use xlink:href="#DejaVuSans-67" transform="translate(502.302734 0)"/>
      <use xlink:href="#DejaVuSans-69" transform="translate(565.779297 0)"/>
      <use xlink:href="#DejaVuSans-6e" transform="translate(593.5625 0)"/>
      <use xlink:href="#DejaVuSans-20" transform="translate(656.941406 0)"/>
      <use xlink:href="#DejaVuSans-63" transform="translate(688.728516 0)"/>
      <use xlink:href="#DejaVuSans-6f" transform="translate(743.708984 0)"/>
      <use xlink:href="#DejaVuSans-6e" transform="translate(804.890625 0)"/>
      <use xlink:href="#DejaVuSans-66" transform="translate(868.269531 0)"/>
      <use xlink:href="#DejaVuSans-69" transform="translate(903.474609 0)"/>
      <use xlink:href="#DejaVuSans-64" transform="translate(931.257812 0)"/>
      <use xlink:href="#DejaVuSans-65" transform="translate(994.734375 0)"/>
      <use xlink:href="#DejaVuSans-6e" transform="translate(1056.257812 0)"/>
      <use xlink:href="#DejaVuSans-63" transform="translate(1119.636719 0)"/>
      <use xlink:href="#DejaVuSans-65" transform="translate(1174.617188 0)"/>
     </g>
    </g>
   </g>
   <g id="line2d_23">
    <path d="M 74.514545 219.232912 
L 102.918657 224.996345 
L 131.322769 218.514306 
L 159.726881 207.636361 
L 188.130993 206.01067 
L 216.535104 214.607994 
L 244.939216 211.291359 
L 273.343328 205.142234 
L 301.74744 204.617002 
L 328.257944 204.718737 
L 356.662056 204.063368 
L 385.066168 204.415013 
L 413.470279 205.552167 
L 441.874391 204.36959 
L 470.278503 205.734771 
L 498.682615 202.365382 
L 527.086727 205.249085 
L 555.490838 204.415904 
L 583.89495 205.6877 
L 610.405455 205.416701 
" clip-path="url(#p40913c9c91)" style="fill: none; stroke: #1f77b4; stroke-width: 2; stroke-linecap: square"/>
    <defs>
     <path id="mb5b9620d69" d="M 0 3 
C 0.795609 3 1.55874 2.683901 2.12132 2.12132 
C 2.683901 1.55874 3 0.795609 3 0 
C 3 -0.795609 2.683901 -1.55874 2.12132 -2.12132 
C 1.55874 -2.683901 0.795609 -3 0 -3 
C -0.795609 -3 -1.55874 -2.683901 -2.12132 -2.12132 
C -2.683901 -1.55874 -3 -0.795609 -3 0 
C -3 0.795609 -2.683901 1.55874 -2.12132 2.12132 
C -1.55874 2.683901 -0.795609 3 0 3 
z
" style="stroke: #1f77b4"/>
    </defs>
    <g clip-path="url(#p40913c9c91)">
     <use xlink:href="#mb5b9620d69" x="74.514545" y="219.232912" style="fill: #1f77b4; stroke: #1f77b4"/>
     <use xlink:href="#mb5b9620d69" x="102.918657" y="224.996345" style="fill: #1f77b4; stroke: #1f77b4"/>
     <use xlink:href="#mb5b9620d69" x="131.322769" y="218.514306" style="fill: #1f77b4; stroke: #1f77b4"/>
     <use xlink:href="#mb5b9620d69" x="159.726881" y="207.636361" style="fill: #1f77b4; stroke: #1f77b4"/>
     <use xlink:href="#mb5b9620d69" x="188.130993" y="206.01067" style="fill: #1f77b4; stroke: #1f77b4"/>
     <use xlink:href="#mb5b9620d69" x="216.535104" y="214.607994" style="fill: #1f77b4; stroke: #1f77b4"/>
     <use xlink:href="#mb5b9620d69" x="244.939216" y="211.291359" style="fill: #1f77b4; stroke: #1f77b4"/>
     <use xlink:href="#mb5b9620d69" x="273.343328" y="205.142234" style="fill: #1f77b4; stroke: #1f77b4"/>
     <use xlink:href="#mb5b9620d69" x="301.74744" y="204.617002" style="fill: #1f77b4; stroke: #1f77b4"/>
     <use xlink:href="#mb5b9620d69" x="328.257944" y="204.718737" style="fill: #1f77b4; stroke: #1f77b4"/>
     <use xlink:href="#mb5b9620d69" x="356.662056" y="204.063368" style="fill: #1f77b4; stroke: #1f77b4"/>
     <use xlink:href="#mb5b9620d69" x="385.066168" y="204.415013" style="fill: #1f77b4; stroke: #1f77b4"/>
     <use xlink:href="#mb5b9620d69" x="413.470279" y="205.552167" style="fill: #1f77b4; stroke: #1f77b4"/>
     <use xlink:href="#mb5b9620d69" x="441.874391" y="204.36959" style="fill: #1f77b4; stroke: #1f77b4"/>
     <use xlink:href="#mb5b9620d69" x="470.278503" y="205.734771" style="fill: #1f77b4; stroke: #1f77b4"/>
     <use xlink:href="#mb5b9620d69" x="498.682615" y="202.365382" style="fill: #1f77b4; stroke: #1f77b4"/>
     <use xlink:href="#mb5b9620d69" x="527.086727" y="205.249085" style="fill: #1f77b4; stroke: #1f77b4"/>
     <use xlink:href="#mb5b9620d69" x="555.490838" y="204.415904" style="fill: #1f77b4; stroke: #1f77b4"/>
     <use xlink:href="#mb5b9620d69" x="583.89495" y="205.6877" style="fill: #1f77b4; stroke: #1f77b4"/>
     <use xlink:href="#mb5b9620d69" x="610.405455" y="205.416701" style="fill: #1f77b4; stroke: #1f77b4"/>
    </g>
   </g>
   <g id="line2d_24">
    <path d="M 74.514545 219.232912 
L 102.918657 224.996345 
L 131.322769 266.186758 
L 159.726881 285.618844 
L 188.130993 296.763491 
L 216.535104 303.712485 
L 244.939216 308.58328 
L 273.343328 312.236376 
L 301.74744 315.004228 
L 328.257944 316.665509 
L 356.662056 317.691259 
L 385.066168 318.250268 
L 413.470279 318.530546 
L 441.874391 318.550909 
L 470.278503 318.369484 
L 498.682615 318.023804 
L 527.086727 317.536865 
L 555.490838 316.960676 
L 583.89495 316.206287 
L 610.405455 315.435443 
" clip-path="url(#p40913c9c91)" style="fill: none; stroke: #ff7f0e; stroke-width: 2; stroke-linecap: square"/>
    <defs>
     <path id="m81d229673f" d="M 0 3 
C 0.795609 3 1.55874 2.683901 2.12132 2.12132 
C 2.683901 1.55874 3 0.795609 3 0 
C 3 -0.795609 2.683901 -1.55874 2.12132 -2.12132 
C 1.55874 -2.683901 0.795609 -3 0 -3 
C -0.795609 -3 -1.55874 -2.683901 -2.12132 -2.12132 
C -2.683901 -1.55874 -3 -0.795609 -3 0 
C -3 0.795609 -2.683901 1.55874 -2.12132 2.12132 
C -1.55874 2.683901 -0.795609 3 0 3 
z
" style="stroke: #ff7f0e"/>
    </defs>
    <g clip-path="url(#p40913c9c91)">
     <use xlink:href="#m81d229673f" x="74.514545" y="219.232912" style="fill: #ff7f0e; stroke: #ff7f0e"/>
     <use xlink:href="#m81d229673f" x="102.918657" y="224.996345" style="fill: #ff7f0e; stroke: #ff7f0e"/>
     <use xlink:href="#m81d229673f" x="131.322769" y="266.186758" style="fill: #ff7f0e; stroke: #ff7f0e"/>
     <use xlink:href="#m81d229673f" x="159.726881" y="285.618844" style="fill: #ff7f0e; stroke: #ff7f0e"/>
     <use xlink:href="#m81d229673f" x="188.130993" y="296.763491" style="fill: #ff7f0e; stroke: #ff7f0e"/>
     <use xlink:href="#m81d229673f" x="216.535104" y="303.712485" style="fill: #ff7f0e; stroke: #ff7f0e"/>
     <use xlink:href="#m81d229673f" x="244.939216" y="308.58328" style="fill: #ff7f0e; stroke: #ff7f0e"/>
     <use xlink:href="#m81d229673f" x="273.343328" y="312.236376" style="fill: #ff7f0e; stroke: #ff7f0e"/>
     <use xlink:href="#m81d229673f" x="301.74744" y="315.004228" style="fill: #ff7f0e; stroke: #ff7f0e"/>
     <use xlink:href="#m81d229673f" x="328.257944" y="316.665509" style="fill: #ff7f0e; stroke: #ff7f0e"/>
     <use xlink:href="#m81d229673f" x="356.662056" y="317.691259" style="fill: #ff7f0e; stroke: #ff7f0e"/>
     <use xlink:href="#m81d229673f" x="385.066168" y="318.250268" style="fill: #ff7f0e; stroke: #ff7f0e"/>
     <use xlink:href="#m81d229673f" x="413.470279" y="318.530546" style="fill: #ff7f0e; stroke: #ff7f0e"/>
     <use xlink:href="#m81d229673f" x="441.874391" y="318.550909" style="fill: #ff7f0e; stroke: #ff7f0e"/>
     <use xlink:href="#m81d229673f" x="470.278503" y="318.369484" style="fill: #ff7f0e; stroke: #ff7f0e"/>
     <use xlink:href="#m81d229673f" x="498.682615" y="318.023804" style="fill: #ff7f0e; stroke: #ff7f0e"/>
     <use xlink:href="#m81d229673f" x="527.086727" y="317.536865" style="fill: #ff7f0e; stroke: #ff7f0e"/>
     <use xlink:href="#m81d229673f" x="555.490838" y="316.960676" style="fill: #ff7f0e; stroke: #ff7f0e"/>
     <use xlink:href="#m81d229673f" x="583.89495" y="316.206287" style="fill: #ff7f0e; stroke: #ff7f0e"/>
     <use xlink:href="#m81d229673f" x="610.405455" y="315.435443" style="fill: #ff7f0e; stroke: #ff7f0e"/>
    </g>
   </g>
   <g id="line2d_25">
    <path d="M 74.514545 219.232912 
L 102.918657 224.996345 
L 131.322769 80.831097 
L 159.726881 50.909939 
L 188.130993 42.189761 
L 216.535104 40.769091 
L 244.939216 42.010718 
L 273.343328 44.616368 
L 301.74744 48.220559 
L 328.257944 51.598954 
L 356.662056 55.24974 
L 385.066168 59.080055 
L 413.470279 62.840519 
L 441.874391 66.376106 
L 470.278503 69.811293 
L 498.682615 73.209027 
L 527.086727 76.565437 
L 555.490838 79.929346 
L 583.89495 83.263732 
L 610.405455 86.265804 
" clip-path="url(#p40913c9c91)" style="fill: none; stroke: #2ca02c; stroke-width: 2; stroke-linecap: square"/>
    <defs>
     <path id="m15bee79a73" d="M 0 3 
C 0.795609 3 1.55874 2.683901 2.12132 2.12132 
C 2.683901 1.55874 3 0.795609 3 0 
C 3 -0.795609 2.683901 -1.55874 2.12132 -2.12132 
C 1.55874 -2.683901 0.795609 -3 0 -3 
C -0.795609 -3 -1.55874 -2.683901 -2.12132 -2.12132 
C -2.683901 -1.55874 -3 -0.795609 -3 0 
C -3 0.795609 -2.683901 1.55874 -2.12132 2.12132 
C -1.55874 2.683901 -0.795609 3 0 3 
z
" style="stroke: #2ca02c"/>
    </defs>
    <g clip-path="url(#p40913c9c91)">
     <use xlink:href="#m15bee79a73" x="74.514545" y="219.232912" style="fill: #2ca02c; stroke: #2ca02c"/>
     <use xlink:href="#m15bee79a73" x="102.918657" y="224.996345" style="fill: #2ca02c; stroke: #2ca02c"/>
     <use xlink:href="#m15bee79a73" x="131.322769" y="80.831097" style="fill: #2ca02c; stroke: #2ca02c"/>
     <use xlink:href="#m15bee79a73" x="159.726881" y="50.909939" style="fill: #2ca02c; stroke: #2ca02c"/>
     <use xlink:href="#m15bee79a73" x="188.130993" y="42.189761" style="fill: #2ca02c; stroke: #2ca02c"/>
     <use xlink:href="#m15bee79a73" x="216.535104" y="40.769091" style="fill: #2ca02c; stroke: #2ca02c"/>
     <use xlink:href="#m15bee79a73" x="244.939216" y="42.010718" style="fill: #2ca02c; stroke: #2ca02c"/>
     <use xlink:href="#m15bee79a73" x="273.343328" y="44.616368" style="fill: #2ca02c; stroke: #2ca02c"/>
     <use xlink:href="#m15bee79a73" x="301.74744" y="48.220559" style="fill: #2ca02c; stroke: #2ca02c"/>
     <use xlink:href="#m15bee79a73" x="328.257944" y="51.598954" style="fill: #2ca02c; stroke: #2ca02c"/>
     <use xlink:href="#m15bee79a73" x="356.662056" y="55.24974" style="fill: #2ca02c; stroke: #2ca02c"/>
     <use xlink:href="#m15bee79a73" x="385.066168" y="59.080055" style="fill: #2ca02c; stroke: #2ca02c"/>
     <use xlink:href="#m15bee79a73" x="413.470279" y="62.840519" style="fill: #2ca02c; stroke: #2ca02c"/>
     <use xlink:href="#m15bee79a73" x="441.874391" y="66.376106" style="fill: #2ca02c; stroke: #2ca02c"/>
     <use xlink:href="#m15bee79a73" x="470.278503" y="69.811293" style="fill: #2ca02c; stroke: #2ca02c"/>
     <use xlink:href="#m15bee79a73" x="498.682615" y="73.209027" style="fill: #2ca02c; stroke: #2ca02c"/>
     <use xlink:href="#m15bee79a73" x="527.086727" y="76.565437" style="fill: #2ca02c; stroke: #2ca02c"/>
     <use xlink:href="#m15bee79a73" x="555.490838" y="79.929346" style="fill: #2ca02c; stroke: #2ca02c"/>
     <use xlink:href="#m15bee79a73" x="583.89495" y="83.263732" style="fill: #2ca02c; stroke: #2ca02c"/>
     <use xlink:href="#m15bee79a73" x="610.405455" y="86.265804" style="fill: #2ca02c; stroke: #2ca02c"/>
    </g>
   </g>
   <g id="patch_3">
    <path d="M 47.72 332.44 
L 47.72 26.88 
" style="fill: none; stroke: #000000; stroke-width: 0.8; stroke-linejoin: miter; stroke-linecap: square"/>
   </g>
   <g id="patch_4">
    <path d="M 637.2 332.44 
L 637.2 26.88 
" style="fill: none; stroke: #000000; stroke-width: 0.8; stroke-linejoin: miter; stroke-linecap: square"/>
   </g>
   <g id="patch_5">
    <path d="M 47.72 332.44 
L 637.2 332.44 
" style="fill: none; stroke: #000000; stroke-width: 0.8; stroke-linejoin: miter; stroke-linecap: square"/>
   </g>
   <g id="patch_6">
    <path d="M 47.72 26.88 
L 637.2 26.88 
" style="fill: none; stroke: #000000; stroke-width: 0.8; stroke-linejoin: miter; stroke-linecap: square"/>
   </g>
   <g id="text_14">
    <!-- Mean Confidence of Evaluated Query Set -->
    <g transform="translate(218.95 20.88) scale(0.12 -0.12)">
     <defs>
      <path id="DejaVuSans-43" d="M 4122 4306 
L 4122 3641 
Q 3803 3938 3442 4084 
Q 3081 4231 2675 4231 
Q 1875 4231 1450 3742 
Q 1025 3253 1025 2328 
Q 1025 1406 1450 917 
Q 1875 428 2675 428 
Q 3081 428 3442 575 
Q 3803 722 4122 1019 
L 4122 359 
Q 3791 134 3420 21 
Q 3050 -91 2638 -91 
Q 1578 -91 968 557 
Q 359 1206 359 2328 
Q 359 3453 968 4101 
Q 1578 4750 2638 4750 
Q 3056 4750 3426 4639 
Q 3797 4528 4122 4306 
z
" transform="scale(0.015625)"/>
      <path id="DejaVuSans-45" d="M 628 4666 
L 3578 4666 
L 3578 4134 
L 1259 4134 
L 1259 2753 
L 3481 2753 
L 3481 2222 
L 1259 2222 
L 1259 531 
L 3634 531 
L 3634 0 
L 628 0 
L 628 4666 
z
" transform="scale(0.015625)"/>
      <path id="DejaVuSans-51" d="M 2522 4238 
Q 1834 4238 1429 3725 
Q 1025 3213 1025 2328 
Q 1025 1447 1429 934 
Q 1834 422 2522 422 
Q 3209 422 3611 934 
Q 4013 1447 4013 2328 
Q 4013 3213 3611 3725 
Q 3209 4238 2522 4238 
z
M 3406 84 
L 4238 -825 
L 3475 -825 
L 2784 -78 
Q 2681 -84 2626 -87 
Q 2572 -91 2522 -91 
Q 1538 -91 948 567 
Q 359 1225 359 2328 
Q 359 3434 948 4092 
Q 1538 4750 2522 4750 
Q 3503 4750 4090 4092 
Q 4678 3434 4678 2328 
Q 4678 1516 4351 937 
Q 4025 359 3406 84 
z
" transform="scale(0.015625)"/>
      <path id="DejaVuSans-79" d="M 2059 -325 
Q 1816 -950 1584 -1140 
Q 1353 -1331 966 -1331 
L 506 -1331 
L 506 -850 
L 844 -850 
Q 1081 -850 1212 -737 
Q 1344 -625 1503 -206 
L 1606 56 
L 191 3500 
L 800 3500 
L 1894 763 
L 2988 3500 
L 3597 3500 
L 2059 -325 
z
" transform="scale(0.015625)"/>
      <path id="DejaVuSans-53" d="M 3425 4513 
L 3425 3897 
Q 3066 4069 2747 4153 
Q 2428 4238 2131 4238 
Q 1616 4238 1336 4038 
Q 1056 3838 1056 3469 
Q 1056 3159 1242 3001 
Q 1428 2844 1947 2747 
L 2328 2669 
Q 3034 2534 3370 2195 
Q 3706 1856 3706 1288 
Q 3706 609 3251 259 
Q 2797 -91 1919 -91 
Q 1588 -91 1214 -16 
Q 841 59 441 206 
L 441 856 
Q 825 641 1194 531 
Q 1563 422 1919 422 
Q 2459 422 2753 634 
Q 3047 847 3047 1241 
Q 3047 1584 2836 1778 
Q 2625 1972 2144 2069 
L 1759 2144 
Q 1053 2284 737 2584 
Q 422 2884 422 3419 
Q 422 4038 858 4394 
Q 1294 4750 2059 4750 
Q 2388 4750 2728 4690 
Q 3069 4631 3425 4513 
z
" transform="scale(0.015625)"/>
     </defs>
     <use xlink:href="#DejaVuSans-4d"/>
     <use xlink:href="#DejaVuSans-65" transform="translate(86.279297 0)"/>
     <use xlink:href="#DejaVuSans-61" transform="translate(147.802734 0)"/>
     <use xlink:href="#DejaVuSans-6e" transform="translate(209.082031 0)"/>
     <use xlink:href="#DejaVuSans-20" transform="translate(272.460938 0)"/>
     <use xlink:href="#DejaVuSans-43" transform="translate(304.248047 0)"/>
     <use xlink:href="#DejaVuSans-6f" transform="translate(374.072266 0)"/>
     <use xlink:href="#DejaVuSans-6e" transform="translate(435.253906 0)"/>
     <use xlink:href="#DejaVuSans-66" transform="translate(498.632812 0)"/>
     <use xlink:href="#DejaVuSans-69" transform="translate(533.837891 0)"/>
     <use xlink:href="#DejaVuSans-64" transform="translate(561.621094 0)"/>
     <use xlink:href="#DejaVuSans-65" transform="translate(625.097656 0)"/>
     <use xlink:href="#DejaVuSans-6e" transform="translate(686.621094 0)"/>
     <use xlink:href="#DejaVuSans-63" transform="translate(750 0)"/>
     <use xlink:href="#DejaVuSans-65" transform="translate(804.980469 0)"/>
     <use xlink:href="#DejaVuSans-20" transform="translate(866.503906 0)"/>
     <use xlink:href="#DejaVuSans-6f" transform="translate(898.291016 0)"/>
     <use xlink:href="#DejaVuSans-66" transform="translate(959.472656 0)"/>
     <use xlink:href="#DejaVuSans-20" transform="translate(994.677734 0)"/>
     <use xlink:href="#DejaVuSans-45" transform="translate(1026.464844 0)"/>
     <use xlink:href="#DejaVuSans-76" transform="translate(1089.648438 0)"/>
     <use xlink:href="#DejaVuSans-61" transform="translate(1148.828125 0)"/>
     <use xlink:href="#DejaVuSans-6c" transform="translate(1210.107422 0)"/>
     <use xlink:href="#DejaVuSans-75" transform="translate(1237.890625 0)"/>
     <use xlink:href="#DejaVuSans-61" transform="translate(1301.269531 0)"/>
     <use xlink:href="#DejaVuSans-74" transform="translate(1362.548828 0)"/>
     <use xlink:href="#DejaVuSans-65" transform="translate(1401.757812 0)"/>
     <use xlink:href="#DejaVuSans-64" transform="translate(1463.28125 0)"/>
     <use xlink:href="#DejaVuSans-20" transform="translate(1526.757812 0)"/>
     <use xlink:href="#DejaVuSans-51" transform="translate(1558.544922 0)"/>
     <use xlink:href="#DejaVuSans-75" transform="translate(1637.255859 0)"/>
     <use xlink:href="#DejaVuSans-65" transform="translate(1700.634766 0)"/>
     <use xlink:href="#DejaVuSans-72" transform="translate(1762.158203 0)"/>
     <use xlink:href="#DejaVuSans-79" transform="translate(1803.271484 0)"/>
     <use xlink:href="#DejaVuSans-20" transform="translate(1862.451172 0)"/>
     <use xlink:href="#DejaVuSans-53" transform="translate(1894.238281 0)"/>
     <use xlink:href="#DejaVuSans-65" transform="translate(1957.714844 0)"/>
     <use xlink:href="#DejaVuSans-74" transform="translate(2019.238281 0)"/>
    </g>
   </g>
   <g id="legend_1">
    <g id="patch_7">
     <path d="M 264.1725 203.177188 
L 420.7475 203.177188 
Q 422.7475 203.177188 422.7475 201.177188 
L 422.7475 158.142813 
Q 422.7475 156.142813 420.7475 156.142813 
L 264.1725 156.142813 
Q 262.1725 156.142813 262.1725 158.142813 
L 262.1725 201.177188 
Q 262.1725 203.177188 264.1725 203.177188 
z
" style="fill: #ffffff; opacity: 0.8; stroke: #cccccc; stroke-linejoin: miter"/>
    </g>
    <g id="line2d_26">
     <path d="M 266.1725 164.24125 
L 276.1725 164.24125 
L 286.1725 164.24125 
" style="fill: none; stroke: #1f77b4; stroke-width: 2; stroke-linecap: square"/>
     <g>
      <use xlink:href="#mb5b9620d69" x="276.1725" y="164.24125" style="fill: #1f77b4; stroke: #1f77b4"/>
     </g>
    </g>
    <g id="text_15">
     <!-- mod30 -->
     <g transform="translate(294.1725 167.74125) scale(0.1 -0.1)">
      <use xlink:href="#DejaVuSans-6d"/>
      <use xlink:href="#DejaVuSans-6f" transform="translate(97.412109 0)"/>
      <use xlink:href="#DejaVuSans-64" transform="translate(158.59375 0)"/>
      <use xlink:href="#DejaVuSans-33" transform="translate(222.070312 0)"/>
      <use xlink:href="#DejaVuSans-30" transform="translate(285.693359 0)"/>
     </g>
    </g>
    <g id="line2d_27">
     <path d="M 266.1725 178.919375 
L 276.1725 178.919375 
L 286.1725 178.919375 
" style="fill: none; stroke: #ff7f0e; stroke-width: 2; stroke-linecap: square"/>
     <g>
      <use xlink:href="#m81d229673f" x="276.1725" y="178.919375" style="fill: #ff7f0e; stroke: #ff7f0e"/>
     </g>
    </g>
    <g id="text_16">
     <!-- confidence adaptive -->
     <g transform="translate(294.1725 182.419375) scale(0.1 -0.1)">
      <defs>
       <path id="DejaVuSans-70" d="M 1159 525 
L 1159 -1331 
L 581 -1331 
L 581 3500 
L 1159 3500 
L 1159 2969 
Q 1341 3281 1617 3432 
Q 1894 3584 2278 3584 
Q 2916 3584 3314 3078 
Q 3713 2572 3713 1747 
Q 3713 922 3314 415 
Q 2916 -91 2278 -91 
Q 1894 -91 1617 61 
Q 1341 213 1159 525 
z
M 3116 1747 
Q 3116 2381 2855 2742 
Q 2594 3103 2138 3103 
Q 1681 3103 1420 2742 
Q 1159 2381 1159 1747 
Q 1159 1113 1420 752 
Q 1681 391 2138 391 
Q 2594 391 2855 752 
Q 3116 1113 3116 1747 
z
" transform="scale(0.015625)"/>
      </defs>
      <use xlink:href="#DejaVuSans-63"/>
      <use xlink:href="#DejaVuSans-6f" transform="translate(54.980469 0)"/>
      <use xlink:href="#DejaVuSans-6e" transform="translate(116.162109 0)"/>
      <use xlink:href="#DejaVuSans-66" transform="translate(179.541016 0)"/>
      <use xlink:href="#DejaVuSans-69" transform="translate(214.746094 0)"/>
      <use xlink:href="#DejaVuSans-64" transform="translate(242.529297 0)"/>
      <use xlink:href="#DejaVuSans-65" transform="translate(306.005859 0)"/>
      <use xlink:href="#DejaVuSans-6e" transform="translate(367.529297 0)"/>
      <use xlink:href="#DejaVuSans-63" transform="translate(430.908203 0)"/>
      <use xlink:href="#DejaVuSans-65" transform="translate(485.888672 0)"/>
      <use xlink:href="#DejaVuSans-20" transform="translate(547.412109 0)"/>
      <use xlink:href="#DejaVuSans-61" transform="translate(579.199219 0)"/>
      <use xlink:href="#DejaVuSans-64" transform="translate(640.478516 0)"/>
      <use xlink:href="#DejaVuSans-61" transform="translate(703.955078 0)"/>
      <use xlink:href="#DejaVuSans-70" transform="translate(765.234375 0)"/>
      <use xlink:href="#DejaVuSans-74" transform="translate(828.710938 0)"/>
      <use xlink:href="#DejaVuSans-69" transform="translate(867.919922 0)"/>
      <use xlink:href="#DejaVuSans-76" transform="translate(895.703125 0)"/>
      <use xlink:href="#DejaVuSans-65" transform="translate(954.882812 0)"/>
     </g>
    </g>
    <g id="line2d_28">
     <path d="M 266.1725 193.5975 
L 276.1725 193.5975 
L 286.1725 193.5975 
" style="fill: none; stroke: #2ca02c; stroke-width: 2; stroke-linecap: square"/>
     <g>
      <use xlink:href="#m15bee79a73" x="276.1725" y="193.5975" style="fill: #2ca02c; stroke: #2ca02c"/>
     </g>
    </g>
    <g id="text_17">
     <!-- high-confidence contrast -->
     <g transform="translate(294.1725 197.0975) scale(0.1 -0.1)">
      <defs>
       <path id="DejaVuSans-68" d="M 3513 2113 
L 3513 0 
L 2938 0 
L 2938 2094 
Q 2938 2591 2744 2837 
Q 2550 3084 2163 3084 
Q 1697 3084 1428 2787 
Q 1159 2491 1159 1978 
L 1159 0 
L 581 0 
L 581 4863 
L 1159 4863 
L 1159 2956 
Q 1366 3272 1645 3428 
Q 1925 3584 2291 3584 
Q 2894 3584 3203 3211 
Q 3513 2838 3513 2113 
z
" transform="scale(0.015625)"/>
       <path id="DejaVuSans-2d" d="M 313 2009 
L 1997 2009 
L 1997 1497 
L 313 1497 
L 313 2009 
z
" transform="scale(0.015625)"/>
      </defs>
      <use xlink:href="#DejaVuSans-68"/>
      <use xlink:href="#DejaVuSans-69" transform="translate(63.378906 0)"/>
      <use xlink:href="#DejaVuSans-67" transform="translate(91.162109 0)"/>
      <use xlink:href="#DejaVuSans-68" transform="translate(154.638672 0)"/>
      <use xlink:href="#DejaVuSans-2d" transform="translate(218.017578 0)"/>
      <use xlink:href="#DejaVuSans-63" transform="translate(254.101562 0)"/>
      <use xlink:href="#DejaVuSans-6f" transform="translate(309.082031 0)"/>
      <use xlink:href="#DejaVuSans-6e" transform="translate(370.263672 0)"/>
      <use xlink:href="#DejaVuSans-66" transform="translate(433.642578 0)"/>
      <use xlink:href="#DejaVuSans-69" transform="translate(468.847656 0)"/>
      <use xlink:href="#DejaVuSans-64" transform="translate(496.630859 0)"/>
      <use xlink:href="#DejaVuSans-65" transform="translate(560.107422 0)"/>
      <use xlink:href="#DejaVuSans-6e" transform="translate(621.630859 0)"/>
      <use xlink:href="#DejaVuSans-63" transform="translate(685.009766 0)"/>
      <use xlink:href="#DejaVuSans-65" transform="translate(739.990234 0)"/>
      <use xlink:href="#DejaVuSans-20" transform="translate(801.513672 0)"/>
      <use xlink:href="#DejaVuSans-63" transform="translate(833.300781 0)"/>
      <use xlink:href="#DejaVuSans-6f" transform="translate(888.28125 0)"/>
      <use xlink:href="#DejaVuSans-6e" transform="translate(949.462891 0)"/>
      <use xlink:href="#DejaVuSans-74" transform="translate(1012.841797 0)"/>
      <use xlink:href="#DejaVuSans-72" transform="translate(1052.050781 0)"/>
      <use xlink:href="#DejaVuSans-61" transform="translate(1093.164062 0)"/>
      <use xlink:href="#DejaVuSans-73" transform="translate(1154.443359 0)"/>
      <use xlink:href="#DejaVuSans-74" transform="translate(1206.542969 0)"/>
     </g>
    </g>
   </g>
  </g>
 </g>
 <defs>
  <clipPath id="p40913c9c91">
   <rect x="47.72" y="26.88" width="589.48" height="305.56"/>
  </clipPath>
 </defs>
</svg>
